<svg xmlns="http://www.w3.org/2000/svg" viewBox="0 0 446 175.94"><defs><style>.cls-1{fill:#c64d54;}.cls-2{fill:#3ba1b0;}</style></defs><title>loppfy sgv</title><g id="Layer_2" data-name="Layer 2"><g id="Layer_1-2" data-name="Layer 1"><path class="cls-1" d="M272.71,45.09A42.49,42.49,0,0,1,290,48.64a45.76,45.76,0,0,1,14.09,9.57,44.71,44.71,0,0,1,9.5,14.09,44.09,44.09,0,0,1-9.5,48.54A45.34,45.34,0,0,1,290,130.26a44.66,44.66,0,0,1-34.52,0,45.27,45.27,0,0,1-14.1-9.42,43.71,43.71,0,0,1-9.49-14,44.66,44.66,0,0,1,0-34.52,44.68,44.68,0,0,1,9.49-14.09,45.69,45.69,0,0,1,14.1-9.57A42.45,42.45,0,0,1,272.71,45.09Zm0,17.34a26.49,26.49,0,0,0-19.15,7.91A27.87,27.87,0,0,0,247.83,79a26.89,26.89,0,0,0-2.11,10.55A26.3,26.3,0,0,0,247.83,100a27.19,27.19,0,0,0,5.73,8.52,26.88,26.88,0,0,0,8.52,5.72,26.51,26.51,0,0,0,10.63,2.11,26.12,26.12,0,0,0,10.47-2.11,27.93,27.93,0,0,0,8.6-5.72,26.55,26.55,0,0,0,5.8-8.52,26.13,26.13,0,0,0,2.11-10.48A26.72,26.72,0,0,0,297.58,79a27,27,0,0,0-14.4-14.47A26.12,26.12,0,0,0,272.71,62.43Z"/><path class="cls-1" d="M245.72,146.5a5.34,5.34,0,0,1-2.33,4.58,10.81,10.81,0,0,1-6.41,1.68,10.63,10.63,0,0,1-6.1-1.68,5.23,5.23,0,0,1-2.49-4.58V92.89a5.16,5.16,0,0,1,2.49-4.48,10.7,10.7,0,0,1,6.1-1.67,10.89,10.89,0,0,1,6.41,1.67,5.26,5.26,0,0,1,2.33,4.48Z"/><path class="cls-1" d="M289.7,86.38a17.65,17.65,0,1,1-21.78-12.2A17.66,17.66,0,0,1,289.7,86.38ZM242.78,49.79c4.65-5.6,3.62-16.35-2.3-24S226,16.43,221.33,22s-3.62,16.35,2.3,24S238.13,55.39,242.78,49.79ZM323.37,46c5.93-7.67,7-18.42,2.31-24s-13.23-3.92-19.15,3.75-7,18.42-2.31,24S317.45,53.71,323.37,46Zm-59.74-3.83c7.08-3.65,10.12-15.76,6.78-27.07S258.62-2.38,251.54,1.26,241.42,17,244.76,28.33,256.54,45.85,263.63,42.21Zm20.61.73c7.34,2.63,15.25-4.72,17.66-16.43S300.33,3.17,293,.54,277.75,5.25,275.34,17,276.91,40.3,284.24,42.94Z"/><path class="cls-2" d="M358.72,71.44v58a8.06,8.06,0,0,1-8.74,8.74,8.59,8.59,0,0,1-6.11-2.33,8.41,8.41,0,0,1-2.48-6.41v-58A8,8,0,0,1,336,68.73a9.11,9.11,0,0,1-1.89-6A8.7,8.7,0,0,1,336,57.05a7.82,7.82,0,0,1,5.35-2.79V46.57a34.21,34.21,0,0,1,1.88-12,21.81,21.81,0,0,1,5.28-8.29,20.81,20.81,0,0,1,7.91-4.75,31,31,0,0,1,9.8-1.51q5,0,7.54,2.19a7.27,7.27,0,0,1,2.56,5.8,9.71,9.71,0,0,1-1.88,6.26,7.36,7.36,0,0,1-5.36,2.63,24.2,24.2,0,0,0-3.92.61A9.76,9.76,0,0,0,361.89,39a6.83,6.83,0,0,0-2.34,2.86,11.73,11.73,0,0,0-.83,4.82v7.39h5.43a8.19,8.19,0,0,1,6.26,2.49,8.59,8.59,0,0,1,2.33,6.1,8.7,8.7,0,0,1-2.33,6.41,8.46,8.46,0,0,1-6.26,2.33Z"/><path class="cls-2" d="M429.12,59.12a8.4,8.4,0,0,1,3.24-4.45,9.12,9.12,0,0,1,11.08,1A8.32,8.32,0,0,1,446,62a10.53,10.53,0,0,1-.6,3.62L406.81,169.92a9.15,9.15,0,0,1-3.4,4.59,8.43,8.43,0,0,1-4.74,1.43,8.84,8.84,0,0,1-6-2.41,7.9,7.9,0,0,1-2.72-6.18,9.06,9.06,0,0,1,.61-3.16l13-33.92L380,65.75c-.2-.7-.37-1.33-.52-1.88a7.19,7.19,0,0,1-.23-1.89,8.18,8.18,0,0,1,2.64-6.33,9,9,0,0,1,6.26-2.41A8.75,8.75,0,0,1,393,54.67a8.4,8.4,0,0,1,3.24,4.45l16.59,47.18Z"/><path class="cls-1" d="M273.07,37s-3.8,9.09-12.23,12.23c-5.74,2.13,30.49,1,24.46,0C277.23,47.88,273.07,37,273.07,37Z"/><path class="cls-1" d="M17.72,115H53.46a8.21,8.21,0,0,1,8.78,8.78,8.84,8.84,0,0,1-2.39,6.54,8.61,8.61,0,0,1-6.39,2.39H8.94c-2.88,0-5.09-.79-6.63-2.39A9,9,0,0,1,0,123.79V28.58a8.36,8.36,0,0,1,2.54-6.39A8.8,8.8,0,0,1,8.78,19.8a8.88,8.88,0,0,1,6.55,2.39,8.64,8.64,0,0,1,2.39,6.39Z"/><path class="cls-1" d="M101.91,44.76a43.47,43.47,0,0,1,17.64,3.62A46.7,46.7,0,0,1,134,58.16a45.82,45.82,0,0,1,9.71,14.4,45.72,45.72,0,0,1,0,35.28A44.84,44.84,0,0,1,134,122.17a46.29,46.29,0,0,1-14.4,9.63,45.72,45.72,0,0,1-35.28,0,46.17,46.17,0,0,1-14.4-9.63,44.68,44.68,0,0,1-9.71-14.33,45.72,45.72,0,0,1,0-35.28,45.66,45.66,0,0,1,9.71-14.4,46.58,46.58,0,0,1,14.4-9.78A43.4,43.4,0,0,1,101.91,44.76Zm0,17.71a27.1,27.1,0,0,0-19.57,8.09,28.48,28.48,0,0,0-5.85,8.86A27.27,27.27,0,0,0,74.33,90.2a26.76,26.76,0,0,0,2.16,10.71,27.31,27.31,0,0,0,14.56,14.56,27.06,27.06,0,0,0,10.86,2.15,26.75,26.75,0,0,0,10.71-2.15,28.68,28.68,0,0,0,8.78-5.86,27,27,0,0,0,8.08-19.41,27.44,27.44,0,0,0-2.15-10.78,27.85,27.85,0,0,0-5.93-8.86,28.17,28.17,0,0,0-8.78-5.93A26.76,26.76,0,0,0,101.91,62.47Z"/><path class="cls-1" d="M174.78,45.88a43.39,43.39,0,0,1,17.63,3.62,46.8,46.8,0,0,1,14.41,9.78,45.8,45.8,0,0,1,9.7,14.4,45.6,45.6,0,0,1,0,35.28,44.82,44.82,0,0,1-9.7,14.33,46.22,46.22,0,0,1-14.41,9.63,45.7,45.7,0,0,1-35.27,0,46.22,46.22,0,0,1-14.41-9.63A44.65,44.65,0,0,1,133,109a45.6,45.6,0,0,1,0-35.28,45.63,45.63,0,0,1,9.7-14.4,46.8,46.8,0,0,1,14.41-9.78A43.4,43.4,0,0,1,174.78,45.88Zm0,17.72a27,27,0,0,0-19.57,8.08,28.31,28.31,0,0,0-5.85,8.86,27.31,27.31,0,0,0-2.16,10.78A26.76,26.76,0,0,0,149.36,102a27.31,27.31,0,0,0,14.56,14.56,27.06,27.06,0,0,0,10.86,2.15,26.74,26.74,0,0,0,10.7-2.15,28.44,28.44,0,0,0,8.78-5.86,27,27,0,0,0,8.09-19.41,27.31,27.31,0,0,0-2.16-10.78,27.64,27.64,0,0,0-14.71-14.79A26.74,26.74,0,0,0,174.78,63.6Z"/><path class="cls-1" d="M125.65,51.59c10.06,8.66,16.62,8.47,24.77,1.51,3.49-3-12.38,13.52-12.38,13.52Z"/><path class="cls-1" d="M124.24,129.48c10.32-7.12,15.74-7.39,25.16-.75,3.75,2.64-12.24-14-12.24-14Z"/></g></g></svg>